<?xml version="1.0" encoding="utf-8"?>
<!-- Generator: Adobe Illustrator 18.1.1, SVG Export Plug-In . SVG Version: 6.00 Build 0)  -->
<svg version="1.1" xmlns="http://www.w3.org/2000/svg" xmlns:xlink="http://www.w3.org/1999/xlink" x="0px" y="0px"
	 viewBox="0 0 60 60" enable-background="new 0 0 60 60" xml:space="preserve">
<g id="grid" display="none">
	<g display="inline">
		<path fill="#303030" d="M25,18H5c-1.7,0-3-1.4-3-3V5c0-1.7,1.3-3,3-3h20c1.6,0,3,1.3,3,3v10C28,16.6,26.6,18,25,18z"/>
	</g>
	<g display="inline">
		<path fill="#303030" d="M55.2,18H35.1c-1.7,0-3-1.4-3-3V5c0-1.7,1.3-3,3-3h20.1c1.7,0,3,1.3,3,3v10C58.2,16.6,56.9,18,55.2,18z"/>
	</g>
	<g display="inline">
		<path fill="#303030" d="M24.9,38h-20c-1.7,0-3-1.3-3-3V25c0-1.6,1.3-3,3-3h20c1.6,0,3,1.4,3,3v10C27.9,36.7,26.5,38,24.9,38z"/>
	</g>
	<g display="inline">
		<path fill="#303030" d="M55.1,38H35c-1.7,0-3-1.3-3-3V25c0-1.6,1.3-3,3-3h20.1c1.7,0,3,1.4,3,3v10C58.1,36.7,56.8,38,55.1,38z"/>
	</g>
	<g display="inline">
		<path fill="#303030" d="M25,58H5c-1.7,0-3-1.3-3-3V45c0-1.7,1.3-3,3-3h20c1.6,0,3,1.3,3,3v10C28,56.7,26.6,58,25,58z"/>
	</g>
	<g display="inline">
		<path fill="#303030" d="M55,58H35c-1.7,0-3-1.3-3-3V45c0-1.7,1.3-3,3-3h20c1.7,0,3,1.3,3,3v10C58,56.7,56.7,58,55,58z"/>
	</g>
</g>
<g id="collection" display="none">
	<g display="inline">
		<path fill="#303030" d="M25,28H5c-1.7,0-3-1.4-3-3V5c0-1.7,1.3-3,3-3h20c1.6,0,3,1.3,3,3v20C28,26.6,26.6,28,25,28z"/>
	</g>
	<g display="inline">
		<path fill="#303030" d="M55.2,28H35.1c-1.7,0-3-1.3-3-3V5c0-1.7,1.3-3,3-3h20.1c1.7,0,3,1.3,3,3v20C58.2,26.7,56.9,28,55.2,28z"/>
	</g>
	<g display="inline">
		<path fill="#303030" d="M25,58H5c-1.7,0-3-1.3-3-3V35c0-1.7,1.3-3,3-3h20c1.6,0,3,1.3,3,3v20C28,56.7,26.6,58,25,58z"/>
	</g>
	<g display="inline">
		<path fill="#303030" d="M55,58H35c-1.7,0-3-1.3-3-3V35c0-1.7,1.3-3,3-3h20c1.7,0,3,1.3,3,3v20C58,56.7,56.7,58,55,58z"/>
	</g>
</g>
<g id="list">
	<g>
		<path fill="#FFFFFF" d="M55,18H5c-1.7,0-3-1.4-3-3V5c0-1.7,1.3-3,3-3h50c1.7,0,3,1.3,3,3v10C58,16.6,56.7,18,55,18z"/>
	</g>
	<g>
		<path fill="#FFFFFF" d="M55,38H4.9c-1.7,0-3-1.4-3-3V25c0-1.6,1.3-3,3-3H55c1.7,0,3,1.4,3,3v10C58,36.7,56.7,38,55,38z"/>
	</g>
	<g>
		<path fill="#FFFFFF" d="M55,58H5c-1.7,0-3-1.3-3-3V45c0-1.7,1.3-3,3-3h50c1.7,0,3,1.3,3,3v10C58,56.7,56.7,58,55,58z"/>
	</g>
</g>
<g id="レイヤー_5" display="none">
	<g display="inline">
		
			<polyline fill="none" stroke="#FFFFFF" stroke-width="8" stroke-linecap="round" stroke-linejoin="round" stroke-miterlimit="10" points="
			31.8,20.9 18.7,13.4 31.8,5.8 		"/>
		<path fill="none" stroke="#FFFFFF" stroke-width="8" stroke-linecap="round" stroke-miterlimit="10" d="M30,13.4
			c11.1,0,20,9,20,20s-9,20-20,20s-20-9-20-20"/>
	</g>
</g>
<g id="guides" display="none">
</g>
</svg>
